<svg width="22" height="29" viewBox="0 0 22 29" fill="none" xmlns="http://www.w3.org/2000/svg">
<g clip-path="url(#clip0_109_413)">
<path fill-rule="evenodd" clip-rule="evenodd" d="M12.9845 16.9505C14.9996 17.0563 16.5455 16.3038 16.9529 16.0979C18.6149 15.26 19.4875 14.0725 19.8207 13.5964C19.8235 13.5923 19.8268 13.5874 19.8313 13.5809C20.0207 13.3038 21.8204 10.6708 21.569 7.64668C21.9536 9.11416 22.1638 11.3072 20.938 13.4197C19.564 15.778 17.2511 16.6229 16.4474 16.8715C12.8745 17.9581 8.07909 16.6424 6.25414 12.9233C5.36733 11.1453 5.43902 9.34653 5.72947 7.99829C5.55675 9.20044 5.56082 10.7815 6.17144 12.4044C7.22364 15.1253 10.2022 16.8239 12.9845 16.9505Z" fill="white"/>
<path d="M10.1256 8.53059C10.4631 8.53059 10.7367 8.25729 10.7367 7.92015C10.7367 7.58302 10.4631 7.30972 10.1256 7.30972C9.78816 7.30972 9.51459 7.58302 9.51459 7.92015C9.51459 8.25729 9.78816 8.53059 10.1256 8.53059Z" fill="white"/>
<path d="M14.8102 6.49582C15.0352 6.49582 15.2175 6.31362 15.2175 6.08887C15.2175 5.86412 15.0352 5.68192 14.8102 5.68192C14.5852 5.68192 14.4028 5.86412 14.4028 6.08887C14.4028 6.31362 14.5852 6.49582 14.8102 6.49582Z" fill="white"/>
<path d="M17.0507 11.7862C17.3881 11.7862 17.6617 11.5129 17.6617 11.1758C17.6617 10.8387 17.3881 10.5654 17.0507 10.5654C16.7132 10.5654 16.4396 10.8387 16.4396 11.1758C16.4396 11.5129 16.7132 11.7862 17.0507 11.7862Z" fill="white"/>
<path d="M3.35172 29C2.98551 29 2.59608 28.93 2.20258 28.7904L2.47469 28.0233C3.02747 28.2186 3.57129 28.2378 3.96683 28.0742C4.15788 27.9952 4.32449 27.8442 4.43569 27.6493L8.66444 20.0568C8.73084 19.9371 8.69214 19.7939 8.57075 19.7088L9.03717 19.0414C9.4987 19.3633 9.64454 19.9697 9.37731 20.4519L5.14571 28.0489C4.94285 28.4034 4.6357 28.6781 4.27886 28.8258C3.99901 28.9414 3.68494 28.9996 3.35213 28.9996L3.35172 29Z" fill="white"/>
<path d="M7.97795 14.8691L6.1886 17.4605L6.85923 17.9227L8.64858 15.3312L7.97795 14.8691Z" fill="white"/>
<path d="M10.0523 15.9863L8.16632 18.912L8.85128 19.3526L10.7373 16.427L10.0523 15.9863Z" fill="white"/>
<path d="M10.0523 16.3544L8.16632 19.28L8.85128 19.7207L10.7373 16.7951L10.0523 16.3544Z" fill="white"/>
<path d="M13.6643 17.1422C10.5969 17.1422 7.27821 15.6031 5.70256 12.3576C4.10981 9.12964 5.46508 5.81866 5.91805 4.88063C7.13075 2.55122 9.08402 1.4557 9.72641 1.09595C10.2658 0.799685 11.8508 -0.0655005 13.8692 0.00408875C17.214 0.117629 19.8928 2.6615 21.0639 5.13253C21.2721 5.54518 23.0803 9.34695 21.0338 12.9465C19.4687 15.7007 16.4775 16.6807 16.139 16.7841C15.3634 17.0217 14.5234 17.1422 13.6643 17.1422ZM13.6297 0.813522C11.9306 0.813522 10.5908 1.5497 10.1387 1.79795C9.53577 2.13612 7.74137 3.14212 6.657 5.22328C6.23946 6.08806 5.00354 9.09993 6.43417 11.9995C8.23794 15.7138 12.7518 16.97 15.9003 16.0047C16.0217 15.9677 18.8903 15.0679 20.325 12.5436C22.1617 9.31277 20.5238 5.87075 20.3315 5.48902C19.2618 3.23246 16.8433 0.918923 13.8399 0.817184C13.769 0.814743 13.6985 0.813522 13.6289 0.813522H13.6297Z" fill="white"/>
<path d="M13.3498 15.1257C13.2317 15.1257 13.1144 15.122 12.9967 15.1151C10.5978 14.9767 8.36463 13.4381 7.56744 11.3736C6.94215 9.79052 7.28433 8.21642 7.48882 7.27595L7.52467 7.11642C7.6318 6.65697 7.77804 6.027 8.17969 5.31971C8.88075 4.06345 9.92643 3.21739 10.6707 2.84584C11.9665 2.16744 13.7511 2.09785 15.44 2.66311C17.1928 3.25035 18.5497 4.40285 19.2606 5.90858C20.5172 8.61442 19.1331 11.3426 18.4792 12.3901L18.3314 12.59C18.0035 12.9965 17.3215 13.8426 16.1366 14.4469H16.1353C15.2538 14.8937 14.2978 15.1257 13.3498 15.1257ZM13.1563 3.0953C12.3759 3.0953 11.6442 3.25442 11.0422 3.57022C10.3994 3.8913 9.50197 4.62138 8.88971 5.71853C8.54468 6.32611 8.41922 6.86655 8.31819 7.30077L8.28479 7.44849C8.08845 8.35397 7.79108 9.72174 8.32675 11.0777C9.12842 13.1536 11.3347 14.2043 13.0455 14.3028C13.9637 14.3606 14.9051 14.158 15.7675 13.7217C16.7969 13.1959 17.3826 12.4699 17.6971 12.0796L17.7692 11.9909C17.7749 11.982 17.781 11.9714 17.7884 11.9596C18.3721 11.0244 19.6113 8.59611 18.5232 6.25327C17.909 4.95264 16.7219 3.95072 15.1817 3.4347C14.5047 3.20762 13.8138 3.0953 13.1572 3.0953H13.1563Z" fill="white"/>
<path d="M2.6918 28.8104C2.40217 28.8104 2.09055 28.766 1.76833 28.6512C0.764202 28.2634 0.0916599 27.3201 0.0020419 26.1871C-0.0175111 25.7301 0.0957335 25.3305 0.329962 25.0163C1.14712 23.8532 1.91457 22.7366 2.67755 21.6272C3.51466 20.41 4.37988 19.1517 5.29398 17.8572C5.62313 17.3908 6.27123 17.2626 6.7682 17.5654L6.77798 17.5715L8.63348 18.772C9.10601 19.1016 9.25266 19.7076 8.98543 20.1898L4.75343 27.7869C4.55056 28.1417 4.24382 28.4164 3.88658 28.5642C3.5778 28.6915 3.16434 28.8104 2.6918 28.8104ZM6.18487 18.2153C6.09566 18.2153 6.01011 18.254 5.9596 18.3256C5.04794 19.616 4.18435 20.8727 3.34887 22.0875C2.58467 23.1993 1.81518 24.318 0.990284 25.4925C0.864412 25.6617 0.80453 25.8876 0.815122 26.1375C0.878669 26.9416 1.35283 27.618 2.05144 27.8882C2.64455 28.099 3.20874 27.9631 3.57454 27.8117C3.76559 27.7327 3.9322 27.5818 4.04341 27.3864L8.27256 19.7943C8.33855 19.675 8.29985 19.5314 8.17846 19.4463L6.34048 18.2576C6.2916 18.2291 6.23783 18.2153 6.18487 18.2153Z" fill="white"/>
</g>
<defs>
<clipPath id="clip0_109_413">
<rect width="22" height="29" fill="white"/>
</clipPath>
</defs>
</svg>
