<svg width="35" height="24" viewBox="0 0 35 24" fill="none" xmlns="http://www.w3.org/2000/svg">
<g clip-path="url(#clip0_109_442)">
<path d="M4.00904 23.6174H4.00531C3.74746 23.6155 3.5409 23.4072 3.54277 23.1527L3.64442 10.3558C3.64628 10.1022 3.85471 9.89848 4.11069 9.89848H4.11442C4.37227 9.90032 4.57883 10.1087 4.57697 10.3632L4.47532 23.16C4.47345 23.4136 4.26503 23.6174 4.00904 23.6174ZM4.14986 5.90147H4.14613C3.88828 5.89963 3.68172 5.69125 3.68358 5.43677L3.72135 0.667105C3.72322 0.413547 3.93164 0.209778 4.18763 0.209778H4.19136C4.44921 0.211622 4.65577 0.420001 4.6539 0.674481L4.61613 5.44415C4.61427 5.69771 4.40584 5.90147 4.14986 5.90147Z" fill="white"/>
<path d="M13.0282 23.6874C13.0203 23.6874 13.0128 23.6874 13.0049 23.6874C12.7475 23.675 12.5493 23.4588 12.5619 23.2043C12.6817 20.7849 12.7643 18.8191 12.8207 17.017C12.8296 16.7625 13.0426 16.5518 13.3014 16.5707C13.5588 16.5786 13.7607 16.7916 13.7532 17.0461C13.6964 18.8537 13.6138 20.825 13.4935 23.2499C13.4814 23.4966 13.2748 23.6884 13.0282 23.6884V23.6874ZM13.3863 12.5802H13.3826C13.1247 12.5784 12.9181 12.37 12.92 12.1155C12.9461 8.83675 12.8925 5.43953 12.741 0.755615C12.7321 0.501134 12.9345 0.288145 13.1918 0.279847C13.439 0.273393 13.6651 0.471629 13.6726 0.725649C13.8246 5.42247 13.8782 8.83076 13.8526 12.1224C13.8507 12.376 13.6423 12.5802 13.3863 12.5802Z" fill="white"/>
<path d="M22.0464 23.7575C22.039 23.7575 22.032 23.7575 22.0245 23.7575C21.7671 23.746 21.568 23.5298 21.5801 23.2758C21.907 16.2808 21.9266 15.8622 21.7587 5.39344C21.7545 5.13896 21.9602 4.9292 22.2175 4.92505H22.225C22.4791 4.92505 22.6871 5.12697 22.6913 5.37869C22.8596 15.876 22.84 16.296 22.5118 23.3182C22.5006 23.5653 22.294 23.7575 22.0464 23.7575Z" fill="white"/>
<path d="M31.0064 24H31.0026C30.7448 23.9982 30.5382 23.7898 30.5401 23.5353L30.7201 0.946005C30.7219 0.692447 30.9304 0.488678 31.1863 0.488678H31.1901C31.4479 0.490522 31.6545 0.698901 31.6526 0.953382L31.4726 23.5427C31.4708 23.7962 31.2623 24 31.0064 24Z" fill="white"/>
<path d="M22.4194 5.91576C21.7573 5.91576 21.0262 5.85859 20.2279 5.7438C19.2856 5.60872 18.6118 5.11451 18.3307 4.35245C17.9712 3.37925 18.3134 2.07688 19.1816 1.11152C20.6061 -0.472533 24.2118 -0.251707 25.7654 1.06541C26.4704 1.66335 26.8033 2.46045 26.7017 3.31102C26.5982 4.17819 26.0517 4.9822 25.3099 5.35931C24.5801 5.72997 23.6122 5.91576 22.4194 5.91576ZM22.3509 0.92711C21.3307 0.92711 20.358 1.19173 19.8782 1.72467C19.2418 2.43279 18.9653 3.3834 19.2068 4.03666C19.3695 4.47785 19.7584 4.74524 20.3622 4.83145C22.4054 5.12512 23.9255 5.02554 24.8837 4.53917C25.343 4.30589 25.7099 3.75682 25.7757 3.2036C25.8209 2.82465 25.7505 2.26774 25.1583 1.76616C24.5004 1.20833 23.4009 0.92711 22.3509 0.92711Z" fill="white"/>
<path d="M13.8339 17.4974C12.9382 17.4974 11.9973 17.3572 11.2326 17.0756C10.3411 16.7478 9.65284 16.0097 9.43648 15.1499C9.23039 14.3293 9.45886 13.4972 10.0799 12.8066C11.5044 11.2225 15.1101 11.4438 16.6637 12.76C17.3688 13.3579 17.7017 14.1555 17.6 15.0061C17.4965 15.8732 16.95 16.6772 16.2082 17.0539C15.6268 17.3489 14.7548 17.4974 13.8339 17.4974ZM13.2492 12.6217C12.2295 12.6217 11.2564 12.8863 10.7766 13.4193C10.2506 14.0043 10.2497 14.5621 10.3415 14.9272C10.4847 15.4957 10.9505 15.988 11.5571 16.2116C12.8524 16.6883 14.8658 16.6989 15.7816 16.2333C16.2408 16.0005 16.6073 15.4509 16.6735 14.8982C16.7188 14.5192 16.6484 13.9623 16.0562 13.4603C15.3983 12.9025 14.2988 12.6217 13.2487 12.6217H13.2492Z" fill="white"/>
<path d="M33.9458 10.3267C32.7456 11.6826 29.4457 11.5696 28.0138 10.3756C26.5823 9.18111 27.2943 7.38638 28.3509 6.83962C29.4075 6.29285 31.55 6.30069 32.9507 6.80366C34.3514 7.30663 35.146 8.97089 33.9458 10.3267Z" fill="white"/>
<path d="M31.1253 11.7665C29.8309 11.7665 28.5081 11.3908 27.714 10.7278C27.0043 10.1354 26.6649 9.34063 26.7595 8.49006C26.8556 7.62197 27.3955 6.81381 28.135 6.43116C29.2774 5.83968 31.5556 5.81248 33.1107 6.37077C34.004 6.69164 34.6979 7.42419 34.9217 8.28214C35.1348 9.10137 34.9128 9.93534 34.2973 10.631C33.603 11.4152 32.3777 11.7665 31.1253 11.7665ZM30.5541 6.89034C29.767 6.89034 29.0275 7.00974 28.5673 7.24762C28.1099 7.48458 27.7476 8.03642 27.686 8.59056C27.6436 8.96952 27.7186 9.52596 28.3145 10.0234C29.6206 11.1128 32.6313 11.1128 33.5946 10.0234C34.1159 9.43468 34.1127 8.87639 34.0176 8.51173C33.8702 7.94422 33.4002 7.45554 32.7913 7.23702C32.1473 7.00559 31.3281 6.89034 30.5541 6.89034Z" fill="white"/>
<path d="M4.47111 10.7988C3.57539 10.7988 2.63445 10.6587 1.86976 10.377C0.978707 10.0492 0.290019 9.31113 0.0736671 8.45134C-0.132426 7.63073 0.095582 6.7986 0.71666 6.108C2.1416 4.52395 5.74777 4.7457 7.30093 6.06144C8.00594 6.65937 8.33839 7.45647 8.23721 8.30704C8.1337 9.17421 7.58722 9.97822 6.84538 10.3553C6.26393 10.6504 5.392 10.7988 4.47111 10.7988ZM1.41374 6.72069C0.887783 7.30572 0.887317 7.86355 0.979173 8.22867C1.12232 8.79756 1.58813 9.28947 2.19475 9.51306C3.49006 9.98929 5.50344 10.0004 6.4192 9.53473C6.87848 9.30145 7.24498 8.75238 7.31119 8.19916C7.35642 7.82021 7.28554 7.2633 6.69384 6.76172C5.39713 5.6622 2.38686 5.63869 1.41374 6.72069Z" fill="white"/>
</g>
<defs>
<clipPath id="clip0_109_442">
<rect width="35" height="24" fill="white"/>
</clipPath>
</defs>
</svg>
