<svg width="25" height="31" viewBox="0 0 25 31" fill="none" xmlns="http://www.w3.org/2000/svg">
<g clip-path="url(#clip0_109_426)">
<path d="M23.7753 28.5752H1.22429C0.865973 28.5752 0.526839 28.4127 0.293812 28.1296C0.0611933 27.8466 -0.0404245 27.4731 0.0146695 27.1052L2.2572 12.2084C2.35106 11.5851 2.85997 11.1323 3.46722 11.1323H4.78376V11.981H3.46722C3.2648 11.981 3.09503 12.1316 3.06402 12.34L0.82149 27.2368C0.802717 27.3611 0.835365 27.4825 0.914537 27.578C0.993709 27.6734 1.10349 27.7265 1.2247 27.7265H23.7753C23.9418 27.7265 24.0434 27.6306 24.0891 27.5737C24.1348 27.5164 24.207 27.3955 24.1768 27.2249L21.5221 12.3281C21.4862 12.127 21.3177 11.981 21.121 11.981H12.2843V11.1323H21.1205C21.7107 11.1323 22.2171 11.5702 22.3245 12.1736L24.9792 27.0704C25.0457 27.4434 24.9498 27.8249 24.7163 28.1165C24.4829 28.4084 24.1401 28.5756 23.7749 28.5756L23.7753 28.5752Z" fill="white"/>
<path d="M11.7934 27.8551L10.9923 27.6934C11.2253 26.4424 11.8244 25.5928 12.8235 25.0976L13.1748 25.8635C12.4048 26.2455 11.9787 26.8599 11.793 27.8551H11.7934ZM15.0301 25.3577L14.9011 24.5196L15.2668 24.4602C16.0585 24.3333 16.8776 24.2017 17.5852 23.889L17.9048 24.6702C17.1028 25.0246 16.2328 25.1642 15.3917 25.2991L15.0305 25.3577H15.0301ZM19.6621 23.2495L19.003 22.7487C19.0564 22.6728 19.1079 22.5934 19.158 22.5102C19.6731 21.6433 19.9583 20.8824 20.0053 20.2505L20.819 20.3159C20.7619 21.084 20.4362 21.9726 19.851 22.9579C19.7894 23.0611 19.7265 23.1574 19.6621 23.2495ZM19.4176 18.7139C18.9189 18.2607 18.1027 17.9331 16.9914 17.7404L17.1261 16.9032C18.3892 17.1225 19.3409 17.5168 19.9551 18.0748L19.4176 18.7139ZM15.0117 17.5478C14.7122 17.5367 14.4138 17.5316 14.1229 17.5316H12.1693V16.6829H14.1229C14.4232 16.6829 14.7309 16.6876 15.0411 16.6995L15.0117 17.5478Z" fill="white"/>
<path d="M4.94216 30.6758C1.47288 30.5158 1.2925 29.3021 0.389364 28.3906C-0.314614 27.3526 17.6595 27.8152 24.9102 27.8152C24.6482 28.4755 24.4928 29 23.8398 29.8504C22.4857 31.6145 9.27908 30.8761 4.94216 30.6758Z" fill="white"/>
<path d="M8.71336 17.8338C10.4038 17.8338 11.7741 17.3588 11.7741 16.7729C11.7741 16.187 10.4038 15.712 8.71336 15.712C7.02294 15.712 5.65259 16.187 5.65259 16.7729C5.65259 17.3588 7.02294 17.8338 8.71336 17.8338Z" fill="white"/>
<path d="M8.45139 17.1433L8.25101 16.9613C6.25947 15.1544 2.35596 9.7951 2.35596 5.59478C2.35596 1.29854 6.22396 0.05644 8.50975 0H8.51056C9.7867 0 11.2677 0.545728 12.3855 1.42416C13.7502 2.49694 14.5019 3.97796 14.5019 5.59435C14.5019 9.63681 10.7123 16.04 8.69299 17.0254L8.4518 17.1429L8.45139 17.1433ZM8.51913 0.848722C6.53902 0.897948 3.17176 1.95291 3.17176 5.59478C3.17176 9.215 6.528 14.1397 8.57341 16.1211C10.267 14.9409 13.6849 9.26465 13.6849 5.59478C13.6849 3.87187 12.7099 2.74434 11.8925 2.10144C10.9094 1.32867 9.61652 0.848722 8.51832 0.848722H8.51913Z" fill="white"/>
<path d="M8.50941 8.07347C7.159 8.07347 6.06079 6.93152 6.06079 5.52731C6.06079 4.1231 7.159 2.98114 8.50941 2.98114C9.85982 2.98114 10.958 4.1231 10.958 5.52731C10.958 6.93152 9.85982 8.07347 8.50941 8.07347ZM8.50941 3.82986C7.60913 3.82986 6.877 4.59117 6.877 5.52731C6.877 6.46345 7.60913 7.22475 8.50941 7.22475C9.40969 7.22475 10.1418 6.46345 10.1418 5.52731C10.1418 4.59117 9.40969 3.82986 8.50941 3.82986Z" fill="white"/>
</g>
<defs>
<clipPath id="clip0_109_426">
<rect width="25" height="31" fill="white"/>
</clipPath>
</defs>
</svg>
