<svg width="41" height="24" viewBox="0 0 41 24" fill="none" xmlns="http://www.w3.org/2000/svg">
<g clip-path="url(#clip0_109_461)">
<path d="M10.7181 21.1606C10.522 20.9868 10.2225 21.0053 10.0496 21.2015C9.87618 21.3981 9.89466 21.6982 10.0903 21.872L10.7181 21.1606ZM15.2471 7.4738C14.9375 7.41143 14.7826 7.38072 14.7823 7.38167C14.7823 7.38167 14.7823 7.38262 14.7823 7.3831C14.7823 7.38405 14.7823 7.385 14.7818 7.38595C14.7818 7.38785 14.7813 7.38975 14.7809 7.39165C14.7804 7.39545 14.7794 7.39972 14.779 7.40399C14.7775 7.41254 14.7766 7.42109 14.7757 7.43059C14.7738 7.44958 14.7723 7.47 14.7723 7.4928C14.7723 7.53839 14.7757 7.59063 14.7861 7.64999C14.8065 7.76871 14.8524 7.9126 14.9401 8.08499C15.113 8.42596 15.4584 8.89467 16.1364 9.52058L16.7784 8.82202C16.1487 8.24123 15.8891 7.86036 15.7848 7.65426C15.7337 7.55311 15.7223 7.49897 15.7204 7.48757C15.7194 7.48188 15.7204 7.48662 15.7204 7.5004C15.7204 7.50705 15.7199 7.51654 15.719 7.52747C15.7185 7.53316 15.7176 7.53886 15.7166 7.54551C15.7166 7.54884 15.7157 7.55216 15.7147 7.55548C15.7147 7.55738 15.7142 7.55881 15.7138 7.56071C15.7138 7.56166 15.7138 7.56261 15.7133 7.56356C15.7133 7.56356 15.7133 7.56451 15.7133 7.56498C15.7133 7.56498 15.5584 7.53427 15.2485 7.47285L15.2471 7.4738ZM16.1354 9.52105C16.8186 10.1517 17.2394 10.5017 17.5028 10.8037C17.626 10.9443 17.6843 11.0431 17.7127 11.1205C17.7383 11.1898 17.7482 11.2653 17.7316 11.3769L18.6688 11.5184C18.7062 11.2682 18.6892 11.0293 18.6025 10.7923C18.5186 10.5639 18.3793 10.3649 18.2163 10.1778C17.9079 9.82451 17.4024 9.39853 16.7774 8.82202L16.1354 9.52105ZM17.7316 11.3769C17.7274 11.4064 17.7004 11.4771 17.5753 11.5987C17.4521 11.7184 17.2877 11.8357 17.0882 11.9767C16.9049 12.1059 16.6803 12.2626 16.5055 12.4345C16.3354 12.6017 16.1297 12.8633 16.1297 13.2162H17.0773C17.0773 13.2513 17.0574 13.2228 17.1697 13.1122C17.2777 13.0058 17.4313 12.8961 17.634 12.7532C17.8198 12.6221 18.0481 12.4621 18.2343 12.2811C18.4186 12.1026 18.619 11.8513 18.6688 11.5184L17.7316 11.3765V11.3769ZM16.1297 13.2162C16.1297 13.4598 16.2051 13.7177 16.2743 13.9266C16.3572 14.1769 16.4254 14.3459 16.4969 14.5763C16.5623 14.7871 16.5979 14.9562 16.5983 15.0891C16.5988 15.2121 16.5699 15.2706 16.5348 15.31L17.2361 15.9487C17.4744 15.6861 17.5473 15.3722 17.5459 15.0853C17.545 14.809 17.4753 14.5316 17.4019 14.2942C17.3341 14.0762 17.2294 13.7951 17.174 13.6274C17.1048 13.4185 17.0773 13.2912 17.0773 13.2162H16.1297ZM16.5348 15.31C16.469 15.3826 16.342 15.4505 16.1207 15.4923C15.9042 15.5332 15.656 15.5379 15.4072 15.5322C15.3461 15.5308 15.2869 15.5289 15.2281 15.5275C15.1703 15.5256 15.1125 15.5237 15.058 15.5222C14.9562 15.5199 14.8382 15.5189 14.7368 15.5308C14.6871 15.5365 14.6131 15.5484 14.5369 15.5788C14.4667 15.6068 14.3203 15.6804 14.2412 15.8551C14.1555 16.0441 14.2066 16.217 14.2502 16.3077C14.2924 16.3956 14.3507 16.4621 14.3928 16.5057L15.0713 15.8428C15.059 15.83 15.0812 15.8494 15.104 15.8965C15.1282 15.9468 15.177 16.0864 15.1035 16.2483C15.0362 16.3965 14.9173 16.4488 14.8875 16.4606C14.8515 16.4749 14.8311 16.4753 14.8462 16.4739C14.8747 16.4706 14.932 16.4692 15.0367 16.4715C15.0855 16.4725 15.1386 16.4744 15.1983 16.4763C15.257 16.4782 15.3205 16.4801 15.3873 16.4815C15.6489 16.4872 15.9786 16.4848 16.2965 16.4255C16.6092 16.3666 16.9717 16.2403 17.2365 15.9482L16.5353 15.3095L16.5348 15.31ZM14.3928 16.5057C14.5487 16.6663 14.7899 16.8196 14.9884 16.9455C15.2101 17.0861 15.4285 17.2204 15.6218 17.3667C15.8194 17.5163 15.9445 17.6445 16.0051 17.7509C16.052 17.8331 16.052 17.8801 16.0236 17.9437L16.8888 18.3312C17.0603 17.9466 16.9992 17.5799 16.8281 17.2798C16.6708 17.0039 16.4221 16.7817 16.1928 16.6083C15.9597 16.4321 15.6991 16.2716 15.4944 16.142C15.2665 15.9976 15.1329 15.9064 15.0713 15.8428L14.3928 16.5057ZM16.0236 17.9437C15.935 18.1422 15.8308 18.326 15.7185 18.5193C15.6105 18.7054 15.4878 18.912 15.3902 19.1248C15.1817 19.5783 15.0694 20.0921 15.2793 20.7346L16.18 20.4388C16.0629 20.0812 16.1141 19.8191 16.2506 19.5222C16.3254 19.3598 16.4207 19.1979 16.5372 18.997C16.6495 18.8033 16.7769 18.5815 16.8883 18.3317L16.0231 17.9442L16.0236 17.9437ZM15.2793 20.7346C15.3655 20.9987 15.4702 21.2599 15.5555 21.4835C15.6446 21.7172 15.7138 21.9143 15.7531 22.0914C15.7924 22.2671 15.7943 22.3915 15.7735 22.4837C15.755 22.5649 15.7128 22.6499 15.6038 22.7429L16.2188 23.4653C16.4732 23.2478 16.631 22.9875 16.6974 22.695C16.7613 22.4134 16.7338 22.1346 16.6779 21.8839C16.622 21.6341 16.5301 21.3805 16.441 21.1454C16.3477 20.9004 16.2572 20.6743 16.18 20.4388L15.2793 20.7346ZM15.6038 22.7429C15.6271 22.723 15.6109 22.7467 15.492 22.7672C15.385 22.7857 15.2352 22.7942 15.0452 22.7866C14.6662 22.7714 14.1773 22.695 13.6461 22.5582C12.5735 22.2823 11.4236 21.7856 10.7176 21.1601L10.0899 21.8715C10.9541 22.638 12.2674 23.1841 13.4102 23.4781C13.9873 23.6267 14.5444 23.7169 15.0069 23.7355C15.2376 23.745 15.4579 23.7369 15.6517 23.7032C15.8336 23.6718 16.0497 23.6091 16.2179 23.4653L15.6029 22.7425L15.6038 22.7429Z" fill="white"/>
<path d="M16.1994 8.07217C15.0211 8.07217 13.7485 7.92401 13.4888 7.55834C13.3803 7.40543 13.3249 7.18935 13.1813 6.58672C12.9056 5.43084 12.3915 3.28006 11.2089 1.77466L10.7887 1.23945L11.4349 1.02955C11.8907 0.881387 15.1987 0.765039 17.0281 2.68929C18.4077 4.14246 19.6382 5.67065 19.2989 7.00652C19.1189 7.71601 18.1718 7.89362 17.8605 7.95203C17.453 8.02848 16.84 8.07217 16.1989 8.07217H16.1994ZM14.2483 6.94431C15.0377 7.19933 18.0841 7.2226 18.3874 6.75673C18.6086 5.87581 17.4104 4.46918 16.342 3.34369C15.2433 2.18734 13.4571 1.93184 12.4512 1.90383C13.4092 3.46242 13.8503 5.30736 14.1029 6.36542C14.1531 6.57675 14.209 6.80944 14.2483 6.94431Z" fill="white"/>
<path d="M10.3897 22.9552C10.2234 22.9552 10.0462 22.902 9.88136 22.8527C8.6405 22.4799 0.455759 19.0963 0.173853 17.4902C-0.498457 13.6711 0.799731 9.43036 3.73487 5.85539C6.1512 2.9125 9.30192 0.980167 11.7618 0.932678H11.7713C12.0291 0.932678 12.2399 1.13926 12.2451 1.39855C12.2503 1.66068 12.0419 1.87723 11.7808 1.88246C9.58524 1.92472 6.71454 3.72123 4.4664 6.45898C1.70752 9.8193 0.483239 13.7799 1.10627 17.3254C1.19914 17.55 2.25711 18.4295 5.55944 20.0123C7.42381 20.9056 9.10719 21.5937 9.9259 21.872C9.88231 21.5629 9.81929 21.1592 9.7577 20.7631C9.192 17.1407 8.01368 9.60275 10.0064 7.26771C10.4409 6.75911 10.9938 6.50124 11.6505 6.50124C12.3005 6.50124 12.4673 6.22248 12.5223 6.1313C12.9435 5.42704 12.4294 3.79199 11.9296 2.85598C11.8059 2.62471 11.8931 2.33693 12.1238 2.21298C12.3546 2.08951 12.6417 2.17689 12.7653 2.40769C12.8246 2.51929 14.2113 5.15303 13.3348 6.61949C13.1079 6.99893 12.6322 7.45102 11.6505 7.45102C11.2729 7.45102 10.9796 7.58921 10.7271 7.88507C9.01764 9.88768 10.1922 17.4057 10.6939 20.6164C10.982 22.4594 10.9995 22.5696 10.7877 22.7938C10.674 22.9149 10.5361 22.9562 10.3897 22.9562V22.9552Z" fill="white"/>
<path d="M11.5809 11.386C11.4762 11.386 11.3715 11.3513 11.2838 11.2805C11.0801 11.1157 11.0483 10.8166 11.2127 10.6128C12.284 9.2841 13.2676 9.24421 13.7575 9.33681C14.2313 9.42751 14.6065 9.70722 14.7131 10.0491C14.7908 10.2994 14.6515 10.5658 14.4018 10.6437C14.1659 10.7164 13.9181 10.5981 13.8243 10.3754C13.7854 10.3398 13.6542 10.2557 13.4263 10.2557H13.4244C13.16 10.2557 12.618 10.3811 11.9504 11.2093C11.8566 11.3256 11.7192 11.386 11.5809 11.386Z" fill="white"/>
<path d="M29.2116 24C29.0108 24 28.8141 23.9872 28.6222 23.9606C26.8029 23.9758 25.5525 23.6367 24.8712 22.9443C24.071 22.1313 24.4443 21.2247 24.6912 20.625C24.8035 20.3519 24.9101 20.0936 24.9044 19.9069C24.8916 19.4624 24.7447 19.3157 24.424 18.9947C24.3141 18.8845 24.1966 18.7662 24.0762 18.6276C23.9014 18.4262 23.8294 18.1802 23.8744 17.9347C23.9521 17.5078 24.3619 17.1849 24.8035 16.9203C24.4884 16.8092 24.1511 16.6416 23.881 16.3704C23.1665 15.6548 23.7829 14.8185 24.1506 14.3189C24.2529 14.1802 24.4022 13.9774 24.4429 13.8758C24.4055 13.8122 24.2918 13.7542 24.017 13.6355C23.772 13.5296 23.4674 13.3981 23.1452 13.172C22.8401 12.9579 22.6823 12.6539 22.7008 12.3153C22.7491 11.4453 23.9715 10.6841 24.495 10.3972C25.4644 9.86632 25.8965 8.94788 25.8965 7.41968C25.8965 7.15754 26.1083 6.94479 26.3703 6.94479C26.6323 6.94479 26.8441 7.15754 26.8441 7.41968C26.8441 8.60976 26.648 10.2999 24.9494 11.2307C24.0492 11.7246 23.6564 12.2128 23.647 12.3623C23.6508 12.3633 23.6631 12.3761 23.6882 12.3937C23.9312 12.5642 24.1658 12.6653 24.3918 12.7631C24.7954 12.9374 25.2522 13.1355 25.3796 13.6968C25.4753 14.119 25.2019 14.4898 24.9129 14.8831C24.5296 15.4026 24.4453 15.5935 24.5505 15.6989C24.8324 15.9815 25.3266 16.0955 25.653 16.171C25.987 16.2484 26.3334 16.3281 26.3959 16.699C26.4186 16.8315 26.4087 17.0842 26.0903 17.2855C25.9974 17.3449 25.8676 17.4152 25.7217 17.494C25.5151 17.6051 25.0034 17.881 24.8423 18.0624C24.93 18.1593 25.0138 18.2434 25.0934 18.3227C25.454 18.6841 25.8269 19.0573 25.8515 19.8789C25.8624 20.2688 25.7122 20.634 25.5663 20.9873C25.2958 21.6445 25.2181 21.9451 25.545 22.2776C26.0287 22.7696 27.1355 23.0312 28.6464 23.0103H28.6843L28.7217 23.0156C30.1104 23.2217 31.8815 22.5321 33.3336 21.2138C34.5555 20.1054 36.5744 17.5994 36.3697 13.2689C36.3574 13.0068 36.5592 12.7845 36.8207 12.7722C37.0661 12.7612 37.304 12.9617 37.3163 13.2243C37.5395 17.9447 35.315 20.6976 33.9699 21.9186C32.5159 23.2378 30.7477 24.0005 29.2107 24.0005L29.2116 24Z" fill="white"/>
<path d="M36.4441 14.3084L36.3763 13.6184C36.3389 13.2352 35.911 12.7152 35.4581 12.1643C34.6844 11.2236 33.7217 10.0525 33.7217 8.49056C33.7217 8.22842 33.9334 8.01567 34.1954 8.01567C34.4575 8.01567 34.6692 8.22842 34.6692 8.49056C34.6692 9.71151 35.4766 10.6936 36.1892 11.5603C36.5729 12.0266 36.9212 12.4507 37.1282 12.8819C38.9499 11.8347 39.9293 10.4946 40.0411 8.89232C40.2254 6.25953 37.9825 3.41161 36.4095 2.31557C33.9595 0.608811 31.2267 0.491038 28.2868 1.96415C26.5551 2.83225 25.1764 5.83213 24.858 7.10151C25.9946 6.73157 27.6481 6.63754 29.3822 6.53971C30.8026 6.45946 32.2719 6.37588 33.2441 6.12371C33.4971 6.0577 33.7562 6.21014 33.8216 6.46421C33.8875 6.71827 33.7349 6.97756 33.4819 7.0431C32.4187 7.31948 30.9694 7.40164 29.4353 7.48855C27.5643 7.59445 25.6288 7.70414 24.7101 8.18568C24.5116 8.29016 24.2975 8.28589 24.1231 8.17334C23.9208 8.04322 23.8279 7.81005 23.8455 7.48C23.9146 6.1902 25.5914 2.25431 27.8627 1.11552C31.0902 -0.501482 34.2324 -0.356166 36.9496 1.53675C38.7538 2.79283 41.1981 5.92616 40.9863 8.95976C40.8394 11.0588 39.5185 12.7537 37.0605 13.9974L36.4431 14.3099L36.4441 14.3084Z" fill="white"/>
<path d="M29.0467 10.7491C28.9856 10.7491 28.9269 10.7463 28.8719 10.7415C28.1906 10.6812 27.586 10.269 27.3411 9.89242C27.198 9.67302 27.2601 9.37859 27.4789 9.23518C27.6983 9.09223 27.9911 9.15397 28.1351 9.37337C28.2166 9.49874 28.5511 9.75945 28.9553 9.79507C29.2808 9.82451 29.5816 9.69629 29.8451 9.41516C30.0242 9.22378 30.3236 9.21428 30.515 9.39426C30.7055 9.57377 30.7154 9.87438 30.5363 10.0658C30.0223 10.6143 29.4684 10.7491 29.0467 10.7491Z" fill="white"/>
<path d="M30.6831 7.41159C30.4282 7.41159 30.2179 7.20834 30.2098 6.95095C30.2018 6.68881 30.4079 6.46989 30.6694 6.46181C34.2546 6.35354 34.8231 5.29643 34.8449 5.25179C34.9624 5.0172 35.2467 4.92174 35.4808 5.03952C35.7148 5.15729 35.8096 5.44222 35.6925 5.67682C35.4509 6.16026 34.4811 7.29714 30.6978 7.41112C30.6926 7.41112 30.6879 7.41112 30.6831 7.41112V7.41159Z" fill="white"/>
</g>
<defs>
<clipPath id="clip0_109_461">
<rect width="41" height="24" fill="white"/>
</clipPath>
</defs>
</svg>
