<svg width="25" height="28" viewBox="0 0 25 28" fill="none" xmlns="http://www.w3.org/2000/svg">
<g clip-path="url(#clip0_109_454)">
<path d="M11.1589 28C8.14078 28 5.40424 27.5632 2.98525 26.6926C1.91765 26.31 1.46412 24.9672 1.40052 23.934C1.29569 22.3752 1.10269 19.6795 0.892595 16.735C0.23642 7.56493 -0.0283599 2.91226 0.098255 2.777L0.228086 2.63795H0.683812L0.807064 2.8697C1.20007 3.60647 5.94856 4.69917 10.308 4.55619L10.6484 4.54569C13.802 4.44819 19.673 4.26629 20.0331 3.31264L20.1397 3.02973H20.9081L20.9108 3.49235L19.7199 24.1316C19.4699 26.1487 17.5189 27.4596 15.8096 27.6834C14.1937 27.8946 12.6419 28.0004 11.1585 28.0004L11.1589 28ZM0.890841 3.99475C1.01936 6.21688 1.44262 12.1342 1.76676 16.6725C1.9773 19.6183 2.17073 22.3157 2.27556 23.8776C2.32513 24.6821 2.66155 25.6471 3.28263 25.8697C6.75738 27.1202 10.9335 27.4394 15.696 26.8155C17.0983 26.6323 18.6611 25.5479 18.8475 24.052L19.9796 4.41233C18.4536 5.11762 15.1455 5.28116 10.676 5.41977L10.3361 5.43026C7.38329 5.52383 2.84314 5.00044 0.891279 3.99475H0.890841Z" fill="white"/>
<path d="M20.4442 3.45168C20.3074 3.45168 20.1723 3.38784 20.0872 3.26847C20.0723 3.2488 18.1959 0.874508 10.6797 0.874508C1.59019 0.874508 0.872166 2.6843 0.866464 2.70223C0.836638 2.94184 0.622153 3.0892 0.38179 3.06209C0.140549 3.03279 -0.0256878 2.79362 0.00369971 2.554C0.0563341 2.12768 0.818655 0 10.6797 0C18.7314 0 20.7206 2.64757 20.8008 2.75995C20.9416 2.95627 20.896 3.22956 20.6991 3.36992C20.6219 3.42457 20.5329 3.45125 20.4447 3.45125L20.4442 3.45168Z" fill="white"/>
<path d="M21.6261 18.7368C20.7638 18.7368 20.0164 18.4543 19.6817 18.3279L19.5668 18.2855C19.3379 18.2073 19.2155 17.9585 19.294 17.7298C19.373 17.5015 19.6221 17.3787 19.8515 17.4582C19.8879 17.4705 19.9353 17.4884 19.9927 17.5103C20.4941 17.7 21.8266 18.2024 22.9288 17.5028C23.6565 17.0582 23.7666 16.1745 23.9666 14.0402C24.1978 11.5531 24.2605 10.5195 23.4745 9.92086C22.3872 9.0293 20.605 9.29078 20.259 9.35199C20.0217 9.39703 19.7932 9.23568 19.7506 8.99825C19.7081 8.76039 19.8673 8.53345 20.1059 8.49104C20.6844 8.38785 22.6806 8.13774 24.0201 9.23568C25.2105 10.1421 25.079 11.5558 24.8408 14.1216C24.6399 16.2645 24.5184 17.5575 23.3938 18.2449C22.8113 18.6143 22.1937 18.7368 21.6261 18.7368Z" fill="white"/>
<path d="M19.1637 4.05378C19.1637 4.59641 14.5495 5.95277 10.6199 5.6362C3.83222 5.13905 2.16547 4.73196 2.16547 3.64713C2.16547 3.1045 6.74992 2.65238 10.6199 2.74289C14.5793 2.87844 19.1936 3.51159 19.1637 4.05378Z" fill="white"/>
<path d="M9.6334 18.6345C9.429 18.6345 9.22505 18.5636 9.061 18.422C7.50127 17.0743 4.00854 13.7516 5.26256 12.0061C5.90689 11.1089 6.62403 10.6541 7.39512 10.6541H7.40433C8.17104 10.6576 8.92722 11.1067 9.65708 11.9895C10.215 11.2969 11.0317 10.4136 12.0528 10.4394C12.716 10.4438 13.3327 10.8181 13.8863 11.5518C15.514 13.7097 12.5033 16.3835 10.7041 17.9812C10.5334 18.1325 10.376 18.2724 10.2383 18.3988C10.0663 18.5557 9.8492 18.6349 9.63296 18.6349L9.6334 18.6345ZM5.97619 12.5151C5.44064 13.2606 6.97975 15.4665 9.63603 17.7613C9.78692 17.6248 9.94745 17.4823 10.1211 17.3279C11.5914 16.0223 14.3279 13.592 13.1858 12.0774C12.8055 11.5732 12.4226 11.3161 12.0476 11.3139H12.0419C11.2852 11.3139 10.5084 12.3166 10.0904 12.8557L9.63384 13.4408L9.29347 12.9571C8.83599 12.3074 8.13595 11.5317 7.40083 11.5282H7.39556C6.92405 11.5282 6.44639 11.8601 5.97575 12.5146L5.97619 12.5151Z" fill="white"/>
</g>
<defs>
<clipPath id="clip0_109_454">
<rect width="25" height="28" fill="white"/>
</clipPath>
</defs>
</svg>
