<svg width="31" height="24" viewBox="0 0 31 24" fill="none" xmlns="http://www.w3.org/2000/svg">
<g clip-path="url(#clip0_109_434)">
<path d="M28.8948 12.9931C27.3427 12.9931 25.3952 12.721 24.5436 12.1127L25.0982 11.287C25.6581 11.6875 27.2906 11.9887 28.8948 11.9887C29.3641 11.9887 29.6869 11.8888 29.8534 11.6921C30.0151 11.5003 30.0633 11.1776 30.0005 10.7043C29.925 10.3308 28.6864 8.7186 27.2964 7.1877L28.0067 6.50156C28.6708 7.23288 30.8471 9.68733 30.9645 10.5672C31.0687 11.3452 30.945 11.929 30.5872 12.3521C30.2279 12.7772 29.6587 12.9931 28.8948 12.9931Z" fill="white"/>
<path d="M22.452 13.0307C21.4846 13.0307 20.5308 12.8897 20.1068 12.5559L20.6973 11.7578C21.0946 12.071 23.3099 12.1453 24.3532 11.7954C24.7018 11.679 24.7865 11.6203 24.8065 11.6012C24.7958 11.5987 24.7934 11.4612 24.7909 11.3502C24.7875 11.16 24.7827 10.9 24.8124 10.5642C24.9258 9.27925 26.1026 7.79804 26.5461 7.24039L26.6128 7.15657C26.6883 7.0607 26.7847 6.95931 26.8864 6.8539C27.3913 6.32938 27.3348 6.26363 27.1829 6.08795C26.9039 5.7642 25.2486 5.30293 23.5689 5.08007L23.6935 4.08423C24.2714 4.16102 27.1897 4.58566 27.9103 5.42088C28.7268 6.36803 27.9205 7.20425 27.5768 7.56163C27.4994 7.64144 27.4254 7.71723 27.3684 7.78951L27.2988 7.87685C26.9448 8.32256 25.8684 9.67779 25.7822 10.6551C25.7574 10.9361 25.7613 11.1555 25.7647 11.3322C25.7788 12.1122 25.6206 12.4269 24.6546 12.7506C24.1298 12.9263 23.2855 13.0312 22.453 13.0312L22.452 13.0307Z" fill="white"/>
<path d="M15.0526 15.4531C14.9659 15.4531 14.8807 15.4425 14.7896 15.4214L15.0073 14.4432C15.0993 14.4658 15.2585 14.412 15.7054 14.2579L15.8048 14.2243C16.3934 14.022 16.889 12.4369 16.5857 9.43436C16.3428 7.03361 14.9167 3.48844 13.0369 1.94851C11.3558 0.571198 9.74032 0.973248 8.52071 1.47619C7.36877 1.95102 4.13401 4.4627 2.85451 6.19538C2.22937 7.04214 2.27465 7.46025 2.30289 7.56766C2.33307 7.67909 2.3988 7.71172 2.41195 7.71724L2.04679 8.64783C1.71864 8.5113 1.46352 8.20663 1.3642 7.83369C1.19866 7.21079 1.43918 6.45538 2.0799 5.58753C3.46797 3.70678 6.88531 1.06912 8.15945 0.54309C9.50857 -0.0130534 11.5466 -0.554641 13.6431 1.16198C13.7979 1.28896 13.9498 1.427 14.0983 1.57507C15.3364 1.36225 18.1218 1.05908 19.9393 1.41646C22.194 1.85916 24.1371 3.12504 24.4842 3.80215C24.7359 4.29154 24.8299 5.01934 23.8522 5.70599C23.2753 6.11155 21.7952 7.87987 21.709 9.03934C21.7066 9.07347 21.4418 12.5127 20.6423 13.3369C20.1477 13.8469 18.56 14.4386 17.2055 14.0421C16.9689 14.5887 16.6188 15.0023 16.113 15.1765L16.0146 15.2101C15.572 15.3627 15.3087 15.4531 15.0526 15.4531ZM17.4908 13.0844C18.4889 13.3705 19.7139 12.8731 19.9534 12.6267C20.2046 12.3677 20.6107 10.6751 20.7377 8.96154C20.8638 7.27805 22.7281 5.28035 23.3035 4.87579C23.767 4.55054 23.7003 4.42104 23.6234 4.27096C23.4394 3.95072 21.822 2.80732 19.7567 2.40175C18.3263 2.12117 16.1996 2.28982 14.8729 2.47052C16.3316 4.40598 17.3413 7.22033 17.5546 9.32945C17.6617 10.3885 17.7318 11.8677 17.4913 13.0839L17.4908 13.0844Z" fill="white"/>
<path d="M3.22061 20.1065C2.25563 19.2948 0.641659 17.1149 0.243399 15.0149C-0.366162 11.802 0.173777 9.33647 1.80528 7.88387C2.90609 7.0085 5.78301 5.80134 8.94864 7.37541C12.7511 9.2657 15.4313 13.6099 15.4664 14.6274C15.5005 15.6081 14.869 16.7566 13.9079 16.8364L13.83 15.8355C14.1713 15.8069 14.5121 15.2046 14.4936 14.663C14.4366 14.1028 12.1104 10.0613 8.52555 8.27889C5.78739 6.91815 3.33551 7.93356 2.42068 8.66086C1.07157 9.8635 0.652857 11.942 1.19913 14.8211C1.53604 16.598 2.94748 18.5801 3.83601 19.328L3.22061 20.1055V20.1065Z" fill="white"/>
<path d="M9.44379 24C8.39848 24 7.13456 23.7395 5.90619 22.9158C3.07991 21.0205 2.33451 18.9621 3.48888 16.2416C3.94264 15.172 4.78347 14.3709 5.92128 13.9242C7.51189 13.2993 9.53337 13.4343 11.3299 14.2836C14.7414 15.8973 16.1344 17.6274 15.4703 19.4254L14.5603 19.0675C15.1197 17.5537 12.8913 16.1267 10.9239 15.1961C9.35907 14.4547 7.619 14.3307 6.26793 14.8618C5.38037 15.2106 4.72748 15.827 4.38083 16.6436C3.41731 18.9134 3.99425 20.4363 6.43688 22.0746C8.33713 23.3485 10.2953 23.0493 11.0646 22.7135L11.1439 22.6869C11.233 22.6654 11.3319 22.6302 11.4385 22.5815L11.8314 23.5001C11.6844 23.5668 11.5412 23.6185 11.4059 23.6542C10.9789 23.8324 10.2812 24 9.44379 24Z" fill="white"/>
<path d="M12.5739 23.8263C12.2487 23.8263 11.9687 23.7987 11.7584 23.738C11.067 23.5392 10.5091 22.9786 10.2652 22.2397C10.031 21.528 10.1298 20.7896 10.5373 20.2079C11.0811 19.187 12.5617 17.517 14.4148 18.3106C15.8788 18.938 17.5721 20.1331 17.8321 21.275C17.9212 21.666 17.8365 22.0394 17.594 22.3266C16.9085 23.1382 14.1893 23.8263 12.5739 23.8263ZM13.4473 19.1112C12.2277 19.1112 11.3884 20.6958 11.3786 20.7143L11.3392 20.7781C11.1084 21.0953 11.0534 21.5099 11.1873 21.9165C11.3256 22.3356 11.6445 22.6629 12.0208 22.7713C12.9882 23.0498 16.3359 22.2859 16.8593 21.6675C16.8798 21.6429 16.9075 21.6103 16.8837 21.5039C16.7566 20.9457 15.6339 19.9203 14.0408 19.2377C13.8349 19.1493 13.6367 19.1112 13.4473 19.1112Z" fill="white"/>
</g>
<defs>
<clipPath id="clip0_109_434">
<rect width="31" height="24" fill="white"/>
</clipPath>
</defs>
</svg>
